<svg xmlns="http://www.w3.org/2000/svg" viewBox="7.03 7.03 497.95 497.95"><linearGradient id="a" x1="-974.48" x2="-622.38" y1="1306.77" y2="1658.88" gradientUnits="userSpaceOnUse" gradientTransform="translate(1054.43 -1226.825)"><stop offset="0" stop-color="#2489be"/><stop offset="1" stop-color="#0575b3"/></linearGradient><path fill="url(#a)" d="M256 7.03C118.5 7.03 7.03 118.48 7.03 256S118.48 504.98 256 504.98 504.98 393.5 504.98 256 393.5 7.03 256 7.03zm-66.43 369.34H134.9v-176.6h54.67v176.6zm-27.6-199.74c-17.84 0-32.32-14.6-32.32-32.58 0-18 14.48-32.6 32.33-32.6s32.32 14.6 32.32 32.6-14.47 32.58-32.32 32.58zm232.46 199.74h-54.4v-92.7c0-25.43-9.66-39.62-29.76-39.62-21.88 0-33.3 14.78-33.3 39.6v92.72H224.5v-176.6h52.43v23.78s15.78-29.18 53.22-29.18c37.45 0 64.26 22.87 64.26 70.17v111.83z"/></svg>
