<svg xmlns="http://www.w3.org/2000/svg" version="1" x="0.5" y="0.5" viewBox="0 0 256 256"><path style="fill: rgb(76, 117, 163);" d="M114 .6C58 7.8 14.3 47.8 2.4 103c-2.6 11.9-2.6 38.1 0 50 11 51.2 49.4 89.6 100.6 100.6 11.9 2.6 38.1 2.6 50 0 51.2-11 89.6-49.4 100.6-100.6 2.6-11.9 2.6-38.1 0-50C242.7 52.4 205.2 14.3 155 2.9 146.7 1 121.9-.4 114 .6zM137.2 79c2.1.6 4.3 2 4.9 3.1.6 1.2 1 9 .9 20.4 0 19.9.7 23.5 4.6 23.5 4.2 0 14.3-14.1 22.5-31.5 2.6-5.7 5.7-10.9 6.8-11.4 1.2-.7 8.7-1.1 18.3-1.1 21.8 0 23.8 1.3 18.4 12.1-3 5.9-9 14.8-17.2 25.4-7.4 9.7-9.7 14-8.9 16.6.4 1.1 5.5 6.8 11.4 12.7 11.2 11.2 17.1 19.1 17.1 22.7 0 1.2-.9 3-2.1 4.1-1.9 1.7-4 1.9-18.4 2.2-19.9.4-20.3.3-32.7-12.7-8.2-8.5-12.3-11.2-14.8-9.6-2.1 1.3-4 6.6-4.7 12.6-1 9.6-2 10.2-16.2 9.7-27.7-1.1-44.9-14-66.5-49.8C52.9 115.3 40 89.1 40 86.2c0-3.4 3.5-4.2 19-4.2 16.3 0 16.9.3 21.5 11 6.2 14.6 19.5 34 23.3 34 .6 0 2-1.2 2.9-2.7 1.5-2.3 1.8-5 1.8-16.3 0-16.2-.9-19.1-6.6-21.4-4.8-1.9-4.3-4 1.5-6.7 3.3-1.5 6.6-1.9 17.1-1.9 7.2 0 14.7.5 16.7 1z"/></svg>
