<svg xmlns="http://www.w3.org/2000/svg" viewBox="0 0 256 249" preserveAspectRatio="xMinYMin meet"><g fill="#161614"><path d="M127.5 0C57.1 0 0 57.1 0 127.5c0 56.34 36.53 104.13 87.2 121 6.37 1.18 8.7-2.77 8.7-6.14 0-3.04-.1-13.08-.17-23.74-35.47 7.7-42.95-15.04-42.95-15.04-5.8-14.74-14.16-18.66-14.16-18.66-11.57-7.9.87-7.75.87-7.75 12.8.9 19.5 13.13 19.5 13.13 11.3 19.5 29.8 13.9 37.1 10.6 1.1-8.2 4.4-13.84 8.1-17.02-28.4-3.23-58.1-14.16-58.1-63 0-13.93 5-25.3 13.1-34.24-1.3-3.2-5.7-16.18 1.2-33.74 0 0 10.7-3.44 35.1 13.06 10.14-2.83 21.05-4.24 31.9-4.3 10.82.06 21.74 1.47 31.93 4.3C183.7 49.46 194.4 52.9 194.4 52.9c6.95 17.5 2.58 30.5 1.26 33.7 8.2 8.9 13.12 20.3 13.12 34.2 0 48.98-29.83 59.76-58.22 62.9 4.6 3.97 8.67 11.73 8.67 23.63 0 17.06-.15 30.8-.15 35 0 3.38 2.3 7.36 8.77 6.1C218.5 231.6 255 183.83 255 127.5 255 57.08 197.93 0 127.5 0"/><path d="M47.76 181.63c-.28.64-1.28.83-2.2.4-.92-.42-1.44-1.3-1.14-1.92.28-.6 1.28-.8 2.2-.4.93.5 1.46 1.3 1.13 2m6.28 5.6c-.6.6-1.8.3-2.6-.6-.84-.9-1-2.02-.38-2.6.63-.55 1.78-.3 2.62.6.83.9 1 2.08.36 2.65m4.3 7.16c-.78.5-2.06 0-2.85-1.1-.78-1.15-.78-2.5.02-3.06s2.05-.07 2.85 1.05c.78 1.16.78 2.5-.02 3.1m7.28 8.26c-.7.78-2.1.58-3.2-.5-1.1-1-1.4-2.46-.7-3.23.7-.8 2.2-.6 3.3.46 1.1 1.03 1.48 2.5.7 3.26m9.4 2.8c-.3 1-1.7 1.47-3.14 1.04-1.45-.46-2.4-1.6-2.1-2.6.3-1 1.74-1.5 3.2-1.06 1.43.44 2.38 1.6 2.08 2.6m10.7 1.2c.06 1.05-1.17 1.92-2.7 1.94-1.5.04-2.74-.8-2.75-1.85 0-1.06 1.2-1.92 2.7-1.95 1.5 0 2.77.82 2.77 1.9m10.53-.4c.16 1-.9 2.05-2.4 2.33-1.48.3-2.85-.33-3.04-1.34-.17-1.05.9-2.1 2.38-2.38 1.5-.28 2.87.33 3.06 1.4"/></g></svg>
